<svg width="43" height="42" viewBox="0 0 43 42" fill="none" xmlns="http://www.w3.org/2000/svg">
<path d="M2.25402 0.0564804C1.40876 0.2631 0.638638 0.901737 0.234794 1.70943L0 2.17902V21.0095V39.8399L0.262969 40.3752C0.544721 40.9575 1.04248 41.4553 1.66234 41.784L2.06618 42H15.1207H28.1752L28.6448 41.7464C29.2647 41.4177 29.753 40.9012 30.0442 40.2625C30.2884 39.746 30.2884 39.7366 30.2884 37.0881C30.2884 34.5617 30.279 34.4303 30.1005 34.2518C29.8188 33.9701 29.321 33.9701 29.0205 34.2612C28.842 34.4303 28.8326 34.5993 28.7857 37.0506C28.7387 39.5488 28.7293 39.6615 28.5321 39.9432C28.0719 40.5912 29.0205 40.5443 15.0925 40.5443H2.51699L2.20706 40.3377C2.03801 40.2156 1.80321 39.9996 1.69991 39.8587L1.50268 39.5957V21.0095V2.4232L1.69991 2.16962C1.80321 2.02875 2.00983 1.82213 2.15071 1.71882C2.40429 1.52159 2.43246 1.52159 15.1207 1.52159C27.8089 1.52159 27.8371 1.52159 28.0907 1.71882C28.2316 1.82213 28.4382 2.02875 28.5415 2.16962C28.7293 2.41381 28.7387 2.58286 28.7857 5.34403L28.8326 8.25547L29.0581 8.43391C29.3492 8.66871 29.8563 8.66871 30.1099 8.41513C30.2884 8.23669 30.2978 8.14277 30.2696 5.1562C30.2414 2.16023 30.232 2.07571 30.0254 1.68125C29.6967 1.0614 29.1989 0.563637 28.6166 0.281883L28.0813 0.0189133L15.3085 0.0001297C8.28352 0.0001297 2.41368 0.0189133 2.25402 0.0564804Z" fill="white"/>
<path d="M35.6416 4.01038C34.9842 4.25456 34.2517 4.75232 33.8666 5.2313C33.7069 5.43792 30.9458 10.7161 27.7526 16.971L21.9297 28.335V32.0917V35.8578L22.1645 36.0832C22.6153 36.5434 22.7186 36.4964 25.9869 34.1673L29.0017 32.0165L34.2517 21.7514C37.1443 16.0975 39.5298 11.458 39.558 11.4299C39.6331 11.3453 40.1121 11.7022 40.3187 11.9934C40.4314 12.1624 40.5253 12.4254 40.5253 12.585C40.5253 12.7729 39.6143 14.6512 37.8956 18.0041C36.4024 20.9343 35.266 23.2541 35.266 23.3949C35.266 23.9584 36.083 24.3247 36.4681 23.9397C36.6559 23.7518 41.6899 13.9468 41.8965 13.3739C42.2628 12.3315 41.7932 10.9978 40.8447 10.3968C40.6005 10.2465 40.3657 10.1056 40.3187 10.0962C40.2718 10.0774 40.3751 9.76751 40.5441 9.41063C40.8353 8.80016 40.854 8.68746 40.854 7.76707C40.854 6.85607 40.8353 6.73398 40.5629 6.16108C39.8491 4.65841 38.5343 3.82254 36.8907 3.82254C36.4024 3.83193 35.9797 3.88828 35.6416 4.01038ZM38.2338 5.68211C39.3138 6.37709 39.6801 7.71072 39.1448 8.91286L38.9381 9.35428L36.7968 8.26483C35.6228 7.66376 34.6179 7.14722 34.571 7.10026C34.4771 7.01573 34.7964 6.44284 35.1627 6.03899C35.2941 5.88872 35.6228 5.67271 35.8764 5.54123C36.2803 5.344 36.4493 5.32522 37.0598 5.35339C37.6796 5.38157 37.8487 5.42853 38.2338 5.68211ZM36.0924 9.62664C37.7642 10.4719 38.1774 10.7255 38.1304 10.8476C38.0271 11.1293 28.2128 30.2603 28.1376 30.3354C28.0719 30.4012 24.3715 28.6073 23.8268 28.2505C23.7235 28.1941 24.6157 26.3721 27.7056 20.3426C33.5848 8.86591 33.7727 8.50902 33.8854 8.5372C33.9511 8.55598 34.9373 9.04435 36.0924 9.62664ZM25.245 30.7299C26.156 31.1901 26.9073 31.5939 26.9073 31.6221C26.9073 31.6691 23.6578 33.9982 23.5169 34.0452C23.4699 34.0639 23.4324 33.1905 23.4324 31.9508C23.4324 30.7768 23.4699 29.8377 23.5169 29.8564C23.5545 29.8658 24.334 30.2603 25.245 30.7299Z" fill="white"/>
<path d="M5.05276 4.70533L4.78979 4.93073V8.31176V11.6928L5.0152 11.937L5.2406 12.1812H15.1395H25.0384L25.2638 11.9464L25.4986 11.721V8.33054V4.94012L25.2638 4.71472L25.0384 4.47992H15.1771H5.31573L5.05276 4.70533ZM23.9959 8.33054V10.6785H15.1207H6.24551V8.33054V5.9826H15.1207H23.9959V8.33054Z" fill="white"/>
<path d="M5.13725 15.5245C4.70523 15.8251 4.68645 16.4355 5.09969 16.7455C5.23117 16.8488 7.18465 16.8676 15.1488 16.877H25.0384L25.2638 16.6422C25.6394 16.2665 25.5455 15.7406 25.0571 15.487C24.9069 15.4024 22.3335 15.3743 15.1019 15.3743C6.31122 15.3743 5.32509 15.3931 5.13725 15.5245Z" fill="white"/>
<path d="M5.21237 20.0047C4.71461 20.2582 4.66765 21.0472 5.11845 21.2913C5.23115 21.3477 8.25529 21.3853 13.2893 21.3853H21.2816L21.507 21.1505C21.817 20.8405 21.8076 20.493 21.4695 20.1549L21.1971 19.8826H13.3174C7.16585 19.8826 5.4002 19.9108 5.21237 20.0047Z" fill="white"/>
<path d="M5.2125 24.5125C4.85562 24.6909 4.69596 25.0854 4.83683 25.4329C4.90258 25.5831 5.03406 25.7522 5.12798 25.7991C5.23129 25.8555 7.55105 25.8931 11.0636 25.8931H16.8301L17.0273 25.6771C17.403 25.2732 17.2621 24.6721 16.755 24.4937C16.2948 24.334 5.53182 24.3528 5.2125 24.5125Z" fill="white"/>
<path d="M13.233 34.9096C12.97 35.0129 12.7258 35.3604 12.7258 35.6234C12.7258 35.7361 12.8104 35.9333 12.9231 36.0742L13.1109 36.3184H16.0035H18.8962L19.0934 36.1023C19.3 35.8863 19.3564 35.5388 19.2437 35.2383C19.0934 34.8532 18.7741 34.8157 16.0411 34.8251C14.6042 34.8251 13.3363 34.8626 13.233 34.9096Z" fill="white"/>
</svg>
