<svg width="48" height="40" viewBox="0 0 48 40" fill="none" xmlns="http://www.w3.org/2000/svg">
<path d="M12.3205 0.0229492C12.2182 0.0601425 11.8277 0.413486 11.4464 0.80402C10.8513 1.42702 10.7769 1.5386 10.8234 1.77106C10.9815 2.41266 11.6138 2.52424 12.1903 2.00352L12.5622 1.66878L13.957 3.05425C14.7195 3.81673 15.3425 4.47692 15.3425 4.53271C15.3425 4.5792 12.9156 7.05259 9.94936 10.0188L4.55625 15.4119L3.11499 13.9707L1.67372 12.5294L5.71856 8.48456C9.37286 4.82096 9.76339 4.40253 9.76339 4.13287C9.76339 3.67725 9.41935 3.3983 8.92653 3.45409C8.85214 3.47268 6.80648 5.45326 4.39818 7.86156C0.557908 11.6925 0 12.2876 0 12.5294C0 12.7619 0.30685 13.1059 2.12005 14.9191C4.49116 17.2902 4.51906 17.3088 5.14205 16.7602L5.4582 16.4812L5.98821 17.0392C6.6763 17.7644 6.94596 18.3502 7.06684 19.4568C7.36439 22.144 8.35933 24.3292 10.1074 26.1517L10.7862 26.8676L10.6467 27.2675C10.5724 27.4813 10.5073 27.9463 10.5073 28.2903C10.5073 29.6014 11.5115 30.8009 12.7854 31.0055C12.9528 31.0333 12.9714 31.1077 12.9714 31.7307C12.9807 33.3952 14.1988 34.6133 15.8539 34.6133C16.3746 34.6133 16.4583 34.6319 16.4583 34.7806C16.4583 35.478 17.1836 36.5009 17.9832 36.9193C18.3924 37.1331 18.569 37.1703 19.2478 37.1703C19.9359 37.1703 20.1033 37.1331 20.531 36.91C20.81 36.7612 21.0424 36.6589 21.0517 36.6775C21.061 36.6961 21.154 36.8914 21.2563 37.1238C21.526 37.7468 22.8835 39.1044 23.553 39.402C24.5573 39.8669 25.7847 39.6809 26.6587 38.9463C26.9842 38.6767 27.5235 37.6818 27.5235 37.3656C27.5235 37.1796 27.57 37.161 28.2488 37.1703C29.1321 37.1703 29.8016 36.8914 30.3874 36.2777C30.75 35.9057 31.1499 35.0875 31.1499 34.7248C31.1499 34.5947 31.2522 34.5668 31.8287 34.5668C32.9631 34.5575 33.7906 34.0368 34.3114 33.0139C34.5438 32.5304 34.5903 32.3351 34.5903 31.74V31.0333L35.1296 30.8753C36.5709 30.4475 37.4542 28.7273 36.9707 27.3047L36.8219 26.8583L37.4542 26.2074C39.221 24.3663 40.2438 22.1347 40.5413 19.4568C40.6622 18.3502 40.9226 17.7644 41.62 17.0392L42.15 16.4812L42.4661 16.7602C43.0891 17.3088 43.117 17.2902 45.4881 14.9191C47.3013 13.1152 47.6082 12.7619 47.6082 12.5294C47.6082 12.2876 46.8271 11.4787 41.5456 6.17854C38.2074 2.83109 35.39 0.0694427 35.2877 0.0322495C35.1854 -0.0142441 34.9994 -0.00494385 34.8693 0.0415459C34.7391 0.0787392 33.7163 1.03648 32.5911 2.1616C30.7036 4.04919 30.5548 4.22586 30.5548 4.52341C30.5548 4.76517 30.6292 4.93254 30.8244 5.13711L31.0941 5.41606L30.6385 5.88099C29.9318 6.59697 29.3088 6.88522 28.0628 7.0433C26.7052 7.21997 25.7103 7.48032 24.7804 7.89875C24.3713 8.08472 23.9343 8.2335 23.8041 8.2335C23.6739 8.2335 23.2369 8.08472 22.8277 7.89875C21.8979 7.48032 20.903 7.21997 19.5454 7.0433C18.2994 6.88522 17.6764 6.59697 16.9697 5.88099L16.5141 5.41606L16.7837 5.13711C16.979 4.93254 17.0534 4.76517 17.0534 4.52341C17.0534 4.22586 16.9046 4.04919 15.017 2.1616C13.8919 1.03648 12.8691 0.0787392 12.7389 0.0415459C12.6087 -0.00494385 12.4228 -0.0142441 12.3205 0.0229492ZM40.5227 7.11768L45.9344 12.5294L44.4932 13.9707L43.0612 15.4026L42.1221 14.4914C41.2852 13.6638 41.1736 13.5801 40.9412 13.6452C40.5506 13.7382 40.3554 13.9614 40.3554 14.3147C40.3554 14.5565 40.4483 14.7331 40.7738 15.0772L41.1829 15.5142L40.718 15.9791C39.751 16.909 39.3325 17.8202 39.1466 19.4103C38.8862 21.614 37.975 23.6318 36.543 25.1567L35.9665 25.7797L35.204 25.0637C34.2463 24.1618 33.6698 23.8828 32.7771 23.8828C31.2708 23.8828 30.1084 24.98 29.969 26.5329L29.9132 27.0629L29.5319 27.1187C28.3138 27.314 27.3096 28.3368 27.1608 29.5456L27.105 30.0105L26.5471 30.0663C26.2403 30.0942 25.8033 30.2151 25.5708 30.3267C25.3011 30.4661 24.2504 31.4332 22.5488 33.1255C20.3079 35.3571 19.8987 35.7198 19.6012 35.7756C18.9038 35.9057 18.2808 35.6361 17.9925 35.0782C17.8252 34.762 17.8066 34.0368 17.9553 33.7485C18.0111 33.6369 19.3315 32.27 20.8751 30.7079C22.7162 28.8668 23.7204 27.7789 23.7576 27.6208C23.8134 27.4162 23.7669 27.314 23.5344 27.0722C23.2927 26.8397 23.1904 26.7932 22.9858 26.849C22.8184 26.8862 21.6747 27.9649 19.6663 29.964C17.9832 31.647 16.4769 33.0697 16.3374 33.1255C15.203 33.5439 14.0593 32.5118 14.4126 31.3867C14.5056 31.1077 15.2123 30.3453 17.6299 27.9184C20.2707 25.259 20.7356 24.7569 20.7356 24.5244C20.7356 24.1618 20.4008 23.827 20.0475 23.827C19.7964 23.827 19.4245 24.1618 17.0162 26.5794C13.7803 29.8245 13.6037 29.9454 12.6831 29.4898C12.1717 29.248 11.902 28.8203 11.902 28.2531C11.902 27.6859 11.9857 27.5371 12.7389 26.7561C13.4549 26.0122 13.5479 25.8076 13.3526 25.4264C13.0829 24.9057 12.6924 24.9057 12.1252 25.4264L11.6975 25.8262L11.0931 25.1846C9.65181 23.6597 8.72197 21.6326 8.46161 19.4103C8.27564 17.8202 7.9316 17.0485 6.96455 16.0628L6.41595 15.5049L10.9722 10.9487L15.5191 6.4017L16.105 6.95961C17.1371 7.94525 17.7508 8.2149 19.4617 8.43807C21.3586 8.68913 22.9765 9.31212 24.362 10.3443C24.6967 10.5953 26.0636 11.8971 27.4026 13.2454C29.5226 15.3747 29.8388 15.7374 29.9039 16.0442C30.0434 16.8346 29.9411 16.9741 27.2166 19.7078C25.1152 21.8 24.6224 22.2463 24.3155 22.33C23.302 22.5996 22.3535 21.7256 22.5488 20.6934C22.6046 20.3866 22.8835 20.0705 24.5108 18.4246C26.1752 16.7416 26.4077 16.4812 26.4077 16.2209C26.4077 15.8211 26.1194 15.5514 25.7196 15.5514C25.5429 15.5514 25.3662 15.5979 25.3383 15.6444C25.3011 15.7002 25.0594 15.8675 24.799 16.0163C24.4178 16.2395 24.2039 16.2953 23.7762 16.2953C22.6511 16.2953 21.8793 15.663 21.6747 14.5658C21.5632 13.9986 21.7026 13.4685 22.0839 12.892C22.2605 12.6317 22.4093 12.3062 22.4093 12.1761C22.4093 11.8227 22.1025 11.5531 21.7212 11.5531C21.3493 11.5531 20.9774 11.9157 20.5682 12.6968C20.3358 13.1431 20.3172 13.264 20.3172 14.2031C20.3172 15.2074 20.3265 15.2352 20.6705 15.8768L21.0145 16.5277L17.6671 19.8752C15.5006 22.0417 14.3196 23.297 14.3196 23.4179C14.3196 23.9107 14.9054 24.292 15.3239 24.0688C15.4634 23.9944 17.0534 22.4509 18.8666 20.6284C22.1118 17.3832 22.1676 17.3367 22.4 17.4483C22.5302 17.5227 22.7813 17.6064 22.9486 17.6436L23.2648 17.7086L22.3814 18.6013C21.3679 19.6427 21.154 20.0798 21.1633 21.0375C21.1726 22.423 22.1676 23.5481 23.5902 23.7805C24.1016 23.8642 25.0036 23.6225 25.5057 23.2784C25.7196 23.1296 27.0121 21.8837 28.3789 20.5075C31.2243 17.6436 31.2894 17.5506 31.2894 16.3418C31.2801 15.2167 31.1313 14.9749 29.1507 12.9571C28.2302 12.018 26.9935 10.8092 26.4077 10.2699C25.8219 9.73055 25.329 9.26563 25.3104 9.22844C25.2825 9.14475 26.482 8.73562 27.198 8.58684C27.4584 8.53105 28.0256 8.44736 28.4719 8.39157C29.8109 8.2335 30.5269 7.89875 31.5032 6.95961L32.089 6.4017L35.2691 9.58178C38.6909 12.9943 38.663 12.9757 39.1838 12.5666C39.3511 12.4364 39.4255 12.2876 39.4255 12.0831C39.4255 11.8134 39.0536 11.4136 35.8456 8.2056C33.8743 6.23433 32.2657 4.5885 32.2657 4.53271C32.2657 4.43972 34.9622 1.69667 35.0552 1.69667C35.0831 1.69667 37.5379 4.13287 40.5227 7.11768ZM33.1955 25.3148C33.5396 25.4171 35.3342 27.1094 35.576 27.565C35.7526 27.9091 35.7433 28.4577 35.5388 28.8482C35.1575 29.6107 34.1254 29.8431 33.4187 29.3224C32.7027 28.7924 31.5497 27.5185 31.4288 27.1094C31.2057 26.3748 31.5032 25.7146 32.2099 25.3985C32.6562 25.1939 32.7585 25.1846 33.1955 25.3148ZM30.4711 28.5786C30.7686 28.6901 32.8608 30.7265 33.0654 31.0984C33.2606 31.4797 33.2327 32.1585 32.991 32.549C32.7213 32.9953 32.1076 33.2557 31.5404 33.172C31.1499 33.1162 31.0104 33.0046 29.9597 31.9818C29.3274 31.3588 28.7509 30.7358 28.6765 30.5963C28.4812 30.2151 28.5091 29.527 28.7416 29.1551C29.0856 28.5971 29.8481 28.3368 30.4711 28.5786ZM27.5049 31.582C27.8675 31.7679 29.5412 33.5067 29.6621 33.8136C30.062 34.8736 29.1972 35.9429 28.0814 35.7756C27.7094 35.7198 27.5607 35.6082 26.6494 34.7248C25.3662 33.4603 25.2082 33.1162 25.5336 32.2886C25.8219 31.5634 26.7982 31.2193 27.5049 31.582ZM24.6038 34.7155C25.1059 35.0224 26.0171 36.0638 26.1194 36.4451C26.2868 37.0681 26.0543 37.6725 25.515 38.0444C25.2453 38.2304 25.1152 38.2583 24.6409 38.2211C24.0737 38.1839 24.0737 38.1746 23.3299 37.44C22.4372 36.5659 22.3907 36.4823 22.3907 35.9057C22.3907 34.7341 23.5902 34.0832 24.6038 34.7155Z" fill="white"/>
</svg>
