<svg width="32" height="38" viewBox="0 0 32 38" fill="none" xmlns="http://www.w3.org/2000/svg">
<path d="M7.94237 2.89418L0 5.78005V13.1403C0 19.8268 0.0166332 20.5753 0.149699 21.4486C0.765129 25.3657 2.33697 28.4345 5.18957 31.2622C6.88616 32.9505 8.64097 34.2146 10.9779 35.4288C12.7327 36.3436 15.3275 37.3333 15.9513 37.3333C16.2673 37.3333 18.1801 36.6846 19.253 36.2106C22.0141 34.9963 24.4675 33.3995 26.4053 31.5366C29.6155 28.4595 31.4285 24.7253 31.8111 20.3674C31.8693 19.6854 31.8942 17.0158 31.8776 12.5498L31.8527 5.77174L23.9103 2.88587C19.5441 1.29739 15.9513 0 15.9263 0C15.9014 0 12.3086 1.29739 7.94237 2.89418ZM22.3468 5.15631C25.8813 6.44538 28.8753 7.53486 29.0084 7.57644L29.2329 7.65961V13.5894C29.2329 17.1073 29.1997 19.8684 29.1498 20.3757C28.6092 25.715 25.4156 30.0978 20.0015 32.9505C18.6375 33.674 16.3505 34.5888 15.918 34.5888C15.6186 34.5888 13.7307 33.8403 12.4749 33.2166C11.1526 32.5679 9.63896 31.6198 8.6077 30.7964C5.12304 28.0104 3.14368 24.5008 2.7029 20.3591C2.66132 19.9183 2.61974 16.941 2.61974 13.6226V7.66792L5.51392 6.61171C7.10239 6.03787 10.0881 4.94839 12.1423 4.19989C14.2048 3.44308 15.8931 2.82765 15.9014 2.82765C15.918 2.81934 18.8122 3.87555 22.3468 5.15631Z" fill="white"/>
<path d="M18.1135 17.3068L13.2649 22.1554L11.061 19.9515L8.85708 17.7476L7.92562 18.6874L6.98584 19.6188L10.1295 22.7625L13.2649 25.8979L19.0616 20.1012L24.8666 14.2962L23.9517 13.3814C23.4528 12.8824 23.0203 12.4665 22.9953 12.4665C22.9704 12.4665 20.7748 14.6455 18.1135 17.3068Z" fill="white"/>
</svg>
