<svg width="42" height="33" viewBox="0 0 42 33" fill="none" xmlns="http://www.w3.org/2000/svg">
<path d="M11.8958 0.109467C11.4673 0.249363 10.7329 1.00131 10.6017 1.44724C10.5405 1.65708 10.4968 2.32159 10.4968 3.00359V4.19272H6.15996C3.00353 4.19272 1.71822 4.21895 1.45591 4.29765C1.22858 4.36759 0.931295 4.5687 0.660243 4.84849C0.380449 5.11954 0.179346 5.41682 0.109397 5.64416C-0.0305002 6.11631 -0.0392438 11.9483 0.100654 12.4467C0.223064 12.8926 0.765167 13.4697 1.28978 13.7057C1.8144 13.9506 12.4553 17.3081 12.6914 17.3081C13.1811 17.3081 13.4871 16.46 13.1199 16.1277C13.0237 16.0403 10.593 15.2271 7.72506 14.3265C4.84842 13.4172 2.32153 12.6128 2.11168 12.5341C1.35973 12.2456 1.40345 12.4554 1.40345 9.04541V6.02013L1.62204 5.81029L1.83188 5.5917H17.4917H33.1514L33.3613 5.81029L33.5799 6.02013V9.03667V12.0445L33.3176 12.2631C33.0465 12.4991 32.8017 12.5778 26.1653 14.6763C23.892 15.3933 21.9509 16.049 21.8547 16.1365C21.4875 16.4687 21.8022 17.3081 22.2919 17.3081C22.5367 17.3081 33.1689 13.9418 33.6148 13.732C34.1569 13.4609 34.6378 13.0325 34.8127 12.639C34.9613 12.3155 34.9788 12.0095 34.9788 9.14159C34.9788 6.92947 34.9439 5.89772 34.8739 5.64416C34.734 5.16326 34.0083 4.43754 33.5274 4.29765C33.2651 4.21895 31.9798 4.19272 28.8233 4.19272H24.4865V3.00359C24.4865 2.32159 24.4428 1.65708 24.3816 1.44724C24.2417 0.966337 23.516 0.24062 23.0351 0.100723C22.5542 -0.039175 12.3504 -0.0304317 11.8958 0.109467ZM22.869 1.61336C23.0788 1.81447 23.0876 1.86693 23.0876 3.01234V4.19272H17.4917H11.8958V3.01234C11.8958 1.86693 11.9045 1.81447 12.1143 1.61336L12.3242 1.39477H17.4917H22.6591L22.869 1.61336Z" fill="white"/>
<path d="M14.9036 14.2039L14.6851 14.4225L14.7113 17.3778L14.7375 20.3244L15.0348 20.8752C15.3671 21.4873 15.6469 21.7583 16.3026 22.0993C16.6786 22.2917 16.8622 22.3267 17.4918 22.3267C18.13 22.3267 18.2962 22.2917 18.6896 22.0906C19.2667 21.7933 19.6951 21.3649 20.0099 20.779L20.246 20.3244L20.2722 17.3778L20.2984 14.4225L20.0799 14.2039L19.8613 13.9853H17.4918H15.1222L14.9036 14.2039ZM18.8732 17.7363C18.847 19.9571 18.8383 20.1058 18.6634 20.3331C18.3224 20.7965 18.0426 20.9364 17.4918 20.9364C16.9409 20.9364 16.6611 20.7965 16.3201 20.3331C16.1452 20.1058 16.1365 19.9571 16.1103 17.7363L16.084 15.3843H17.4918H18.8995L18.8732 17.7363Z" fill="white"/>
<path d="M1.62191 15.6033L1.40332 15.8131V23.0878C1.40332 28.3514 1.42955 30.4499 1.50824 30.6947C1.64814 31.1756 2.14653 31.7264 2.6624 31.9625L3.10832 32.1724H14.9297C21.4261 32.1724 26.8122 32.1461 26.8909 32.1199C27.1095 32.0325 27.3018 31.5778 27.2406 31.2893C27.1182 30.7384 27.9576 30.7734 15.0171 30.7734H3.23073L3.02088 30.5548L2.80229 30.345V23.079V15.8131L2.5837 15.6033C2.45255 15.4634 2.26894 15.3847 2.10281 15.3847C1.93668 15.3847 1.75306 15.4634 1.62191 15.6033Z" fill="white"/>
<path d="M32.4346 15.5509C32.2423 15.6995 32.2248 15.8045 32.1811 16.6263L32.1373 17.5269L31.6302 17.5881C31.0969 17.6581 30.2225 17.9466 28.9197 18.4887C27.6431 19.0221 26.5065 18.9871 25.7196 18.4013C25.5534 18.2789 25.3086 18.1827 25.1862 18.1827C24.7315 18.1827 24.3643 18.7685 24.5567 19.1795C24.6703 19.433 25.3086 19.8615 25.807 20.0189C26.0168 20.0801 26.2092 20.15 26.2267 20.1588C26.2442 20.1762 25.6933 21.4528 25.0113 23.0004L23.761 25.8246L23.8572 26.4279C24.0758 27.6957 24.8452 28.7275 25.842 29.1034C26.9174 29.5144 28.3164 29.4182 29.1995 28.8674C30.0127 28.369 30.6422 27.3023 30.7471 26.2356C30.7996 25.7547 30.7821 25.7022 29.6104 23.0791C28.9547 21.6102 28.4126 20.3599 28.3951 20.2987C28.3863 20.22 28.5612 20.115 28.8585 20.0276C29.1208 19.9402 29.6104 19.7478 29.9427 19.5904C30.8695 19.1707 31.6215 18.9696 32.4871 18.9084C33.5538 18.8472 34.4544 19.0221 35.7484 19.5729C36.3168 19.809 36.9201 20.0451 37.0862 20.0888C37.2698 20.1325 37.3748 20.2112 37.366 20.2899C37.3485 20.3599 36.8064 21.6102 36.1594 23.0704C35.4512 24.6704 34.979 25.8333 34.979 25.9995C34.979 26.1481 35.0402 26.5066 35.1102 26.7777C35.5648 28.5264 36.8851 29.4707 38.7213 29.357C40.4525 29.2433 41.5979 28.1854 41.9039 26.4279L42.0001 25.8246L40.7673 23.0354C40.0853 21.4965 39.5607 20.22 39.5956 20.185C39.6306 20.1588 39.8842 20.0451 40.164 19.9314C40.8022 19.6779 41.2744 19.2582 41.2744 18.9347C41.2744 18.6461 40.846 18.1827 40.5837 18.1827C40.4875 18.1827 40.2252 18.2964 40.0066 18.4363C39.1235 18.9959 38.1092 19.0133 36.8501 18.4887C35.4949 17.9291 34.673 17.6581 34.1134 17.6056L33.58 17.5444V16.6788C33.58 15.8744 33.5626 15.7957 33.3614 15.6033C33.1079 15.341 32.7144 15.3236 32.4346 15.5509ZM28.1415 23.2278C28.5874 24.2333 28.9459 25.0727 28.9459 25.1076C28.9459 25.1513 28.194 25.1776 27.2759 25.1776C25.7196 25.1776 25.6059 25.1688 25.6583 25.0202C25.8594 24.4956 27.2409 21.4178 27.2847 21.4178C27.3109 21.4178 27.6956 22.231 28.1415 23.2278ZM39.2809 23.1491C39.7006 24.0934 40.0678 24.9415 40.1028 25.0202C40.1552 25.1688 40.0415 25.1776 38.4852 25.1776C37.5671 25.1776 36.8152 25.1513 36.8152 25.1076C36.8152 25.0027 38.424 21.4178 38.4764 21.4178C38.5027 21.4178 38.8612 22.196 39.2809 23.1491ZM29.2082 26.664C29.2082 26.8563 28.9459 27.2586 28.6487 27.5209C27.7393 28.3165 26.0256 28.0367 25.4835 26.9962C25.4135 26.8651 25.3611 26.7164 25.3611 26.664C25.3611 26.6028 25.9993 26.5766 27.2847 26.5766C28.57 26.5766 29.2082 26.6028 29.2082 26.664ZM40.4 26.664C40.4 26.8563 40.1377 27.2586 39.8404 27.5209C39.1759 28.0979 37.9781 28.1417 37.1999 27.6083C36.9288 27.4159 36.5529 26.8826 36.5529 26.6727C36.5529 26.6028 37.1212 26.5766 38.4764 26.5766C39.7618 26.5766 40.4 26.6028 40.4 26.664Z" fill="white"/>
<path d="M32.3996 20.4997L32.181 20.7095V25.7458V30.7734H30.6509C29.1383 30.7734 29.112 30.7734 28.9022 30.992C28.7623 31.1231 28.6836 31.3067 28.6836 31.4729C28.6836 31.639 28.7623 31.8226 28.9022 31.9538L29.112 32.1724H32.8805H36.649L36.8589 31.9538C37.1212 31.7002 37.1386 31.3067 36.9113 31.027C36.7452 30.8259 36.7015 30.8171 35.1626 30.7909L33.58 30.7646V25.7371V20.7095L33.3614 20.4997C33.2303 20.3598 33.0466 20.2811 32.8805 20.2811C32.7144 20.2811 32.5308 20.3598 32.3996 20.4997Z" fill="white"/>
</svg>
